<mxfile host="app.diagrams.net" agent="Mozilla/5.0 (Windows NT 10.0; Win64; x64) AppleWebKit/537.36 (KHTML, like Gecko) Chrome/135.0.0.0 Safari/537.36" version="26.2.15">
  <diagram id="6a731a19-8d31-9384-78a2-239565b7b9f0" name="Page-1">
    <mxGraphModel dx="1426" dy="751" grid="1" gridSize="10" guides="1" tooltips="1" connect="1" arrows="1" fold="1" page="1" pageScale="1" pageWidth="827" pageHeight="1169" background="none" math="0" shadow="0">
      <root>
        <mxCell id="0" />
        <mxCell id="1" parent="0" />
        <mxCell id="aaWqAWN33BDMKdn_iNdA-146" style="edgeStyle=orthogonalEdgeStyle;rounded=0;orthogonalLoop=1;jettySize=auto;html=1;" edge="1" parent="1" source="aaWqAWN33BDMKdn_iNdA-143">
          <mxGeometry relative="1" as="geometry">
            <mxPoint x="360" y="650" as="targetPoint" />
          </mxGeometry>
        </mxCell>
        <mxCell id="aaWqAWN33BDMKdn_iNdA-143" value="Actor" style="shape=umlActor;verticalLabelPosition=bottom;verticalAlign=top;html=1;outlineConnect=0;" vertex="1" parent="1">
          <mxGeometry x="210" y="620" width="40" height="60" as="geometry" />
        </mxCell>
        <mxCell id="aaWqAWN33BDMKdn_iNdA-148" style="edgeStyle=orthogonalEdgeStyle;rounded=0;orthogonalLoop=1;jettySize=auto;html=1;" edge="1" parent="1" source="aaWqAWN33BDMKdn_iNdA-144">
          <mxGeometry relative="1" as="geometry">
            <mxPoint x="560" y="650" as="targetPoint" />
          </mxGeometry>
        </mxCell>
        <mxCell id="aaWqAWN33BDMKdn_iNdA-144" value="软件代理&lt;div&gt;Nginx、&lt;/div&gt;" style="rounded=0;whiteSpace=wrap;html=1;" vertex="1" parent="1">
          <mxGeometry x="370" y="565" width="100" height="170" as="geometry" />
        </mxCell>
        <mxCell id="aaWqAWN33BDMKdn_iNdA-147" value="网关&lt;div&gt;spring cloud alibaba gateway&lt;/div&gt;&lt;div&gt;spring cloud gateway&lt;/div&gt;&lt;div&gt;ingress&lt;/div&gt;" style="rounded=0;whiteSpace=wrap;html=1;" vertex="1" parent="1">
          <mxGeometry x="580" y="620" width="210" height="60" as="geometry" />
        </mxCell>
        <mxCell id="aaWqAWN33BDMKdn_iNdA-149" value="服务" style="rounded=0;whiteSpace=wrap;html=1;" vertex="1" parent="1">
          <mxGeometry x="1000" y="470" width="120" height="60" as="geometry" />
        </mxCell>
      </root>
    </mxGraphModel>
  </diagram>
</mxfile>
